HIERARCHY
ROOT tetra_large
{
	OFFSET 0.000000 0.000000 0.000000
	CHANNELS 6 Xposition Yposition Zposition Yrotation Xrotation Zrotation
	End Site
	{
		OFFSET 0.000000 0.000000 0.000000
	}
}
MOTION
Frames: 129
Frame Time: 0.008333334
-2.090322 3.063992 2.880624 -68.478670 -77.343320 68.059400 
-2.085430 3.072097 2.882701 -66.666470 -76.561130 64.694810 
-2.083744 3.079490 2.885868 -64.471310 -76.053920 61.129840 
-2.080650 3.086932 2.889111 -62.116150 -75.280180 57.066760 
-2.077217 3.094955 2.892866 -59.708040 -74.610780 52.774220 
-2.072289 3.103714 2.898535 -57.466370 -73.665530 48.469840 
-2.068051 3.111287 2.904153 -54.898860 -72.805180 43.780750 
-2.062528 3.119198 2.911318 -52.827030 -72.002960 39.533910 
-2.055874 3.126976 2.917764 -51.148130 -71.312470 35.892970 
-2.049224 3.133539 2.923397 -50.258790 -70.818790 32.927190 
-2.045731 3.138613 2.928193 -49.291530 -70.412600 30.066310 
-2.043483 3.143565 2.930209 -48.695340 -69.981020 27.701870 
-2.042913 3.148805 2.930888 -48.608370 -69.575350 25.821130 
-2.042298 3.152992 2.931898 -48.511440 -68.981020 23.568800 
-2.042784 3.157176 2.932796 -47.935520 -68.423770 20.878730 
-2.042957 3.159967 2.932997 -47.329380 -67.827060 18.106570 
-2.042579 3.163576 2.935519 -46.282100 -66.919160 14.495910 
-2.042157 3.165544 2.937954 -45.558230 -66.238770 11.183630 
-2.041637 3.167964 2.938638 -45.242490 -65.750520 8.509586 
-2.040609 3.171293 2.936540 -45.118320 -65.251590 6.445994 
-2.039682 3.175865 2.932599 -45.006010 -65.078370 4.943596 
-2.038065 3.180324 2.927592 -45.215270 -64.906250 3.689246 
-2.036508 3.185003 2.922024 -45.117580 -64.832400 2.540236 
-2.037056 3.188700 2.917821 -45.560970 -64.778290 1.441606 
-2.037050 3.191934 2.914011 -45.563320 -64.435610 -0.250244 
-2.039564 3.193106 2.910652 -45.497470 -63.626370 -2.395325 
-2.045574 3.191905 2.909952 -45.487880 -62.563480 -4.888153 
-2.051256 3.189125 2.912219 -44.776700 -61.290440 -8.425018 
-2.054033 3.185338 2.919794 -43.915190 -59.854370 -12.611970 
-2.055234 3.180748 2.931350 -42.313750 -58.236760 -17.586460 
-2.053074 3.178452 2.942627 -40.871400 -56.862430 -21.902250 
-2.048164 3.178411 2.953946 -39.521450 -55.737400 -25.764920 
-2.041470 3.181208 2.965082 -38.501530 -54.845520 -28.632810 
-2.034018 3.185075 2.972697 -37.605500 -54.273560 -31.043030 
-2.029003 3.188688 2.979353 -37.337130 -53.746920 -32.685460 
-2.024331 3.189788 2.985885 -36.715670 -53.227290 -34.779630 
-2.020344 3.189365 2.994712 -36.476200 -52.344640 -36.848570 
-2.015042 3.186733 3.009226 -35.763030 -51.440430 -39.793430 
-2.008642 3.184656 3.028698 -35.137940 -50.175810 -42.923070 
-2.000657 3.182564 3.049748 -34.435790 -48.993990 -45.930820 
-1.993976 3.179840 3.071059 -33.860230 -47.849330 -48.510380 
-1.988242 3.177776 3.091784 -33.479250 -46.836240 -50.773190 
-1.982013 3.175548 3.113223 -33.407100 -45.897160 -53.012480 
-1.975545 3.172523 3.134583 -32.786870 -44.928410 -55.396420 
-1.971570 3.168839 3.156547 -32.421450 -43.908230 -57.606140 
-1.968341 3.162734 3.179756 -32.317630 -42.768620 -59.551270 
-1.968225 3.156062 3.203501 -32.374360 -41.615420 -61.204530 
-1.971585 3.148275 3.225848 -32.531040 -40.431400 -62.705870 
-1.976760 3.138181 3.247655 -33.073520 -39.236690 -64.105650 
-1.982979 3.127890 3.269305 -33.458470 -38.008850 -65.290770 
-1.990683 3.117822 3.288548 -33.932160 -36.926700 -66.452820 
-1.997989 3.107758 3.306166 -34.634190 -35.975460 -67.327940 
-2.003784 3.098228 3.324853 -34.957120 -35.241420 -68.448270 
-2.007285 3.089647 3.341558 -35.119690 -34.459410 -69.512820 
-2.008552 3.082453 3.356680 -35.461000 -33.997650 -70.449920 
-2.008627 3.077325 3.369230 -35.460050 -33.730870 -71.199830 
-2.009052 3.073357 3.379440 -35.560390 -33.688570 -71.860960 
-2.012950 3.070775 3.388422 -36.086760 -33.618740 -72.118620 
-2.016886 3.069227 3.395976 -36.559660 -33.540100 -72.187160 
-2.020711 3.068081 3.403020 -36.958100 -33.608950 -72.392030 
-2.022770 3.066729 3.410259 -37.352290 -33.525090 -72.701540 
-2.023244 3.065489 3.417614 -37.676510 -33.586730 -73.081700 
-2.022825 3.064396 3.423803 -37.998410 -33.717040 -73.487270 
-2.022871 3.062936 3.430655 -38.399840 -33.960690 -73.842160 
-2.024124 3.060880 3.436538 -38.759980 -34.158810 -74.019350 
-2.027386 3.059204 3.442234 -39.283570 -34.397580 -74.038760 
-2.031808 3.056726 3.447515 -39.834990 -34.506100 -73.806640 
-2.036031 3.053119 3.453448 -40.220670 -34.477630 -73.639830 
-2.040123 3.049887 3.460187 -40.614320 -34.480440 -73.575130 
-2.044298 3.046865 3.465205 -40.920040 -34.577060 -73.308010 
-2.049392 3.045418 3.469025 -41.477110 -34.441710 -72.794370 
-2.055940 3.045264 3.470018 -42.144010 -34.542240 -72.270750 
-2.064002 3.046377 3.468125 -42.894200 -34.733950 -71.515230 
-2.071372 3.047832 3.464879 -43.902160 -35.097720 -70.684200 
-2.079363 3.049141 3.460467 -44.723750 -35.484770 -69.846310 
-2.087469 3.049798 3.458213 -45.658540 -35.554840 -69.031040 
-2.096541 3.047555 3.454864 -46.615600 -35.526950 -68.237880 
-2.106124 3.046013 3.452817 -47.362920 -35.357670 -67.547970 
-2.114541 3.045453 3.452182 -47.945160 -35.644320 -66.838650 
-2.120307 3.046135 3.451426 -48.456180 -35.638340 -66.121610 
-2.127442 3.046059 3.452543 -49.126950 -35.760990 -65.538760 
-2.133603 3.045511 3.454969 -49.539670 -35.826570 -65.125340 
-2.138264 3.046020 3.457893 -50.098420 -35.818240 -64.534760 
-2.142694 3.047997 3.460312 -50.554750 -35.979920 -64.121950 
-2.145867 3.050773 3.462602 -50.951970 -36.124540 -63.658510 
-2.149539 3.053776 3.464216 -51.525020 -36.310360 -63.267850 
-2.153447 3.056348 3.465351 -52.150790 -36.465520 -62.785550 
-2.156034 3.057642 3.466700 -52.545140 -36.574710 -62.365660 
-2.160697 3.056208 3.468762 -53.064510 -36.565610 -62.126800 
-2.172698 3.047381 3.471777 -53.946870 -35.695010 -62.145420 
-2.186153 3.036000 3.477793 -54.539340 -34.515290 -61.961090 
-2.192873 3.030976 3.483458 -55.018590 -33.804350 -61.614900 
-2.196820 3.031458 3.486182 -55.537140 -33.580900 -61.223970 
-2.200880 3.034140 3.487780 -56.155490 -33.643250 -60.927830 
-2.209867 3.037520 3.487149 -57.322910 -33.748110 -60.454160 
-2.218991 3.041569 3.485594 -58.611270 -33.806180 -59.729800 
-2.227081 3.044528 3.483474 -59.736480 -33.760070 -58.820740 
-2.234792 3.047455 3.481901 -60.771550 -33.807250 -58.081360 
-2.241313 3.050755 3.480096 -61.951660 -33.904660 -57.267400 
-2.248065 3.053534 3.478349 -62.955570 -33.939210 -56.497410 
-2.250929 3.057704 3.473919 -63.953980 -34.437620 -55.839020 
-2.251687 3.064607 3.467449 -65.014500 -35.325960 -55.021330 
-2.251979 3.074706 3.458535 -66.496520 -36.504460 -54.143550 
-2.254895 3.083767 3.449617 -68.261900 -37.592710 -53.031070 
-2.260088 3.088073 3.441267 -70.211640 -38.069980 -51.991850 
-2.272889 3.080527 3.433710 -72.093870 -36.911650 -51.409850 
-2.288867 3.072790 3.429669 -73.897670 -36.476680 -50.480770 
-2.301350 3.065803 3.424067 -75.965640 -35.409520 -49.676330 
-2.312361 3.061360 3.416978 -77.681370 -35.113220 -48.857120 
-2.322416 3.057030 3.411106 -79.690120 -34.414250 -48.091340 
-2.329720 3.054301 3.405606 -81.432010 -34.005550 -47.168000 
-2.338264 3.050822 3.400689 -83.315220 -33.599300 -46.298950 
-2.342230 3.048475 3.394503 -84.710940 -33.351590 -45.582820 
-2.345766 3.045402 3.389102 -86.465450 -32.991970 -44.734860 
-2.348076 3.043733 3.382386 -88.233580 -32.803130 -43.929470 
-2.349206 3.041953 3.374807 -89.991640 -32.730900 -43.223240 
-2.348343 3.041736 3.366932 -91.762970 -32.625550 -42.474700 
-2.346043 3.042585 3.359416 -93.677190 -32.602840 -41.785100 
-2.343820 3.043790 3.353720 -95.700440 -32.452330 -41.188480 
-2.341529 3.046068 3.349801 -97.606450 -32.311220 -40.624450 
-2.338416 3.050723 3.347540 -99.653990 -32.162540 -40.265720 
-2.336250 3.055986 3.349432 -101.854200 -32.044620 -39.996000 
-2.335973 3.062848 3.354401 -103.936900 -31.617710 -40.158110 
-2.336940 3.069396 3.364962 -106.034600 -31.263980 -40.624050 
-2.338816 3.077767 3.378840 -107.933400 -30.739900 -41.603640 
-2.341209 3.086125 3.397460 -109.973900 -30.332920 -42.922580 
-2.346403 3.095284 3.420519 -111.425600 -29.997070 -44.824430 
-2.352696 3.104778 3.448262 -113.000100 -29.628270 -46.942140 
-2.361684 3.113026 3.480245 -114.058300 -29.449310 -49.648710 
